<svg width="364" height="70" viewBox="0 0 364 70" fill="none" xmlns="http://www.w3.org/2000/svg">
<g clip-path="url(#clip0_4910_82584)">
<rect width="364" height="70" rx="10" fill="white"/>
<path d="M26.7141 45.614H37.0101C36.9771 46.076 36.9111 46.571 36.8121 47H24.6021C24.6021 46.67 24.6021 46.307 24.6681 45.977L34.5021 32.084H24.7671C24.8001 31.622 24.8661 31.127 24.9651 30.698H36.6471C36.6471 31.028 36.6141 31.391 36.5481 31.688L26.7141 45.614ZM45.0294 46.01C45.6894 46.01 46.2834 45.878 46.8774 45.614C46.8444 46.043 46.7784 46.571 46.6794 47C46.0194 47.231 45.3264 47.363 44.6004 47.363C42.2904 47.363 40.9374 46.076 40.9374 43.403V35.846L38.6604 37.364C38.6604 36.902 38.7264 36.275 38.7924 35.846L40.9374 34.427V24.164C41.4654 23.966 42.0264 23.9 42.5214 23.9V33.371L46.4814 30.731C46.4484 31.16 46.3824 31.787 46.2834 32.249L42.5214 34.757V43.271C42.5214 45.086 43.4124 46.01 45.0294 46.01ZM54.7788 27.827L56.4618 23.207C56.9898 22.976 57.8478 22.877 58.4088 22.877C57.7818 24.857 56.3958 26.837 55.0098 27.827H54.7788ZM55.9338 47.396C51.3468 47.396 48.8718 44.096 48.8718 38.849C48.8718 33.701 51.3468 30.302 55.9338 30.302C60.5208 30.302 62.9628 33.701 62.9628 38.849C62.9628 44.129 60.4878 47.396 55.9338 47.396ZM55.9338 46.043C59.5308 46.043 61.3458 43.304 61.3458 38.849C61.3458 34.493 59.5308 31.655 55.9338 31.655C52.3038 31.655 50.4888 34.493 50.4888 38.849C50.4888 43.304 52.3368 46.043 55.9338 46.043ZM71.7001 26.408C71.0401 26.408 70.5451 25.946 70.5451 25.22C70.5451 24.494 71.0401 24.032 71.7001 24.032C72.3601 24.032 72.8221 24.494 72.8221 25.22C72.8221 25.913 72.3601 26.408 71.7001 26.408ZM67.6741 45.614H77.9701C77.9371 46.076 77.8711 46.571 77.7721 47H65.5621C65.5621 46.67 65.5621 46.307 65.6281 45.977L75.4621 32.084H65.7271C65.7601 31.622 65.8261 31.127 65.9251 30.698H77.6071C77.6071 31.028 77.5741 31.391 77.5081 31.688L67.6741 45.614ZM109.552 30.698H111.169L105.394 47H103.876L98.8926 32.909L93.8436 47H92.3916L86.5836 30.698H88.2666L93.1836 45.251L98.1996 30.698H99.6186L104.734 45.317L109.552 30.698ZM121.38 30.302C124.878 30.302 126.66 32.348 126.66 36.044V47H125.076V36.473C125.076 33.206 123.69 31.655 120.885 31.655C118.806 31.655 117.222 32.744 116.034 34.097V47H114.45V30.698H115.935L116.034 33.305C117.321 31.457 118.971 30.302 121.38 30.302ZM132.902 26.408C132.275 26.408 131.78 25.946 131.78 25.22C131.78 24.494 132.275 24.032 132.902 24.032C133.595 24.032 134.057 24.494 134.057 25.22C134.057 25.913 133.595 26.408 132.902 26.408ZM132.11 47V30.698H133.694V47H132.11ZM145.137 47.396C140.55 47.396 138.075 44.096 138.075 38.849C138.075 33.701 140.55 30.302 145.137 30.302C149.724 30.302 152.166 33.701 152.166 38.849C152.166 44.129 149.691 47.396 145.137 47.396ZM145.137 46.043C148.734 46.043 150.549 43.304 150.549 38.849C150.549 34.493 148.734 31.655 145.137 31.655C141.507 31.655 139.692 34.493 139.692 38.849C139.692 43.304 141.54 46.043 145.137 46.043ZM160.398 47.396C158.715 47.396 156.735 46.967 155.349 46.109C155.382 45.581 155.481 45.152 155.613 44.723C157.065 45.68 159.045 46.043 160.332 46.043C163.038 46.043 164.721 44.987 164.721 43.007C164.721 41.159 163.665 40.301 161.256 39.575L159.969 39.179C157.395 38.42 155.58 37.166 155.58 34.526C155.58 31.754 157.758 30.302 161.058 30.302C162.84 30.302 164.424 30.599 165.81 31.127C165.777 31.523 165.711 32.018 165.579 32.48C164.226 31.919 162.774 31.655 161.157 31.655C158.781 31.655 157.164 32.546 157.164 34.46C157.164 36.308 158.451 37.199 160.695 37.892L162.015 38.288C164.985 39.212 166.338 40.466 166.338 42.875C166.338 45.614 164.127 47.396 160.398 47.396ZM182.696 37.562C182.696 38.09 182.663 38.915 182.597 39.245H171.113C171.278 43.964 173.621 46.043 177.185 46.043C178.604 46.043 180.452 45.68 182.036 44.558C182.003 44.987 181.904 45.713 181.772 46.109C180.386 47 178.703 47.396 177.119 47.396C172.235 47.396 169.496 44.294 169.496 38.75C169.496 33.998 171.641 30.302 176.393 30.302C180.65 30.302 182.696 33.371 182.696 37.562ZM176.36 31.655C173.06 31.655 171.344 34.163 171.146 37.925H181.112V37.529C181.112 34.13 179.627 31.655 176.36 31.655ZM187.282 47V24.164C187.81 23.966 188.371 23.9 188.866 23.9V47H187.282ZM191.308 38.387L199.393 47H197.446L189.493 38.486V38.321L196.918 30.698H198.832L191.308 38.387Z" fill="#EC0000"/>
<path d="M310.585 41.463C311.514 41.463 312.339 41.3636 313.055 41.1648C313.774 40.966 315.638 40.3396 316.06 40.1689C316.06 40.1689 316.073 41.1742 315.947 42.3707C315.799 43.7886 315.501 44.7057 315.501 44.7057C314.908 44.9626 314.246 45.2252 313.288 45.4952C312.332 45.7653 311.204 45.9003 309.91 45.9003C308.331 45.9003 307.017 45.6884 305.961 45.2608C304.905 44.8351 304.066 44.2162 303.448 43.4041C302.827 42.5939 302.392 41.613 302.138 40.4596C301.885 39.3081 301.758 37.9915 301.758 36.5118V17.1815L306.868 16.3281V23.0704H314.53C314.53 23.0704 314.372 24.477 314.237 25.3303C314.1 26.193 313.697 27.3802 313.697 27.3802H306.868V36.4705C306.868 38.2616 307.15 39.5425 307.714 40.3096C308.277 41.0785 309.233 41.463 310.585 41.463Z" fill="#EC0000"/>
<path d="M271.069 22.6638C271.52 22.7051 271.97 22.7632 272.42 22.8345C272.87 22.9058 273.307 22.9902 273.731 23.0896C274.153 23.1908 274.49 23.2827 274.743 23.3671C274.743 23.3671 274.728 24.5337 274.441 25.8259C274.192 26.9455 273.856 27.7201 273.856 27.7201C273.434 27.5775 272.849 27.4275 272.103 27.2718C271.356 27.1162 270.492 27.0374 269.505 27.0374C268.943 27.0374 268.344 27.0955 267.71 27.2081C267.077 27.3225 266.634 27.4219 266.381 27.5063V45.3869H261.27V24.1361C262.255 23.7666 263.487 23.4178 264.965 23.0896C266.445 22.7632 268.084 22.6001 269.886 22.6001C270.224 22.6001 270.617 22.6207 271.069 22.6638Z" fill="#EC0000"/>
<path d="M334.666 23.0683C334.02 25.7427 333.306 28.509 332.52 31.3691C331.736 34.2273 330.894 36.9242 329.998 39.4561C329.461 38.2333 328.923 36.9092 328.387 35.4857C327.85 34.0641 327.342 32.635 326.86 31.1984C326.38 29.7618 325.935 28.3458 325.525 26.9524C325.114 25.5589 324.769 24.263 324.486 23.0683H319.037C320.196 27.2224 321.519 31.1478 323.004 34.8462C324.488 38.5446 326.037 41.9598 327.65 45.0881C327.083 46.4253 326.425 47.4136 325.675 48.055C324.926 48.6946 323.886 49.0134 322.558 49.0134C321.567 49.0134 320.564 48.8146 319.548 48.417C319.514 48.7171 319.381 49.8648 319.262 50.6019C319.141 51.3765 318.805 52.4042 318.735 52.6124C319.126 52.7906 319.669 52.9556 320.371 53.1113C321.145 53.2819 321.928 53.3663 322.717 53.3663C323.9 53.3663 324.943 53.2313 325.845 52.9612C326.747 52.6912 327.565 52.2579 328.298 51.6597C329.03 51.0633 329.694 50.3093 330.285 49.3979C330.877 48.4883 331.455 47.393 332.019 46.1121C335.026 39.2272 337.668 31.5472 339.945 23.0683H334.666Z" fill="#EC0000"/>
<path fill-rule="evenodd" clip-rule="evenodd" d="M286.076 46.4113C280.517 46.4113 276.811 42.3678 276.811 35.2954C276.811 27.8836 280.77 23.6732 288.559 23.6732C291.592 23.6732 294.075 24.0108 296.519 24.8529V45.9068H292.265L292.012 43.3787C290.834 45.2316 289.022 46.4113 286.076 46.4113ZM287.381 42.621C289.191 42.621 290.665 42.0321 291.886 41.1056V27.8836C290.918 27.7148 289.864 27.6304 288.559 27.6304C283.76 27.6304 281.528 30.5787 281.528 35.2954C281.528 39.5902 283.255 42.621 287.381 42.621Z" fill="#EC0000"/>
<path fill-rule="evenodd" clip-rule="evenodd" d="M223.996 26.3887C223.039 27.3714 222.27 28.6017 221.695 30.0796C221.117 31.5593 220.828 33.281 220.828 35.2446C220.828 36.9231 221.053 38.4666 221.505 39.8732C221.955 41.2817 222.645 42.5064 223.574 43.5435C224.504 44.5825 225.686 45.3927 227.122 45.976C228.559 46.5592 230.249 46.8518 232.192 46.8518C232.951 46.8518 233.698 46.8087 234.429 46.7224C235.16 46.638 235.845 46.5311 236.477 46.4036C237.111 46.276 237.673 46.1335 238.167 45.976C238.66 45.8203 239.046 45.6703 239.328 45.5277C239.328 45.5277 239.622 44.53 239.766 43.2903C239.892 42.2325 239.892 40.871 239.892 40.871C239.3 41.1279 237.252 41.8012 236.224 42.0281C235.196 42.2569 234.063 42.3713 232.824 42.3713C230.712 42.3713 229.101 41.88 227.989 40.8972C226.875 39.9164 226.248 38.5304 226.109 36.7375H240.68C240.708 36.4524 240.729 36.1336 240.744 35.7772C240.757 35.4228 240.764 35.1021 240.764 34.817C240.764 31.0342 239.913 28.1891 238.21 26.2818C236.505 24.3763 234.133 23.4236 231.093 23.4236C229.797 23.4236 228.531 23.673 227.291 24.17C226.051 24.6689 224.954 25.4078 223.996 26.3887ZM234.497 29.2536C234.878 29.7225 235.167 30.2776 235.364 30.9172C235.561 31.5586 235.658 32.2337 235.658 32.9445H226.155C226.24 32.2919 226.395 31.6505 226.62 31.0241C226.846 30.3995 227.162 29.8444 227.571 29.3605C227.978 28.8767 228.479 28.4866 229.07 28.1865C229.661 27.8883 230.381 27.7383 231.14 27.7383C231.9 27.7383 232.554 27.8733 233.104 28.1452C233.653 28.4153 234.117 28.7848 234.497 29.2536Z" fill="#EC0000"/>
<path d="M246.493 32.9661C246.285 34.2087 246.113 35.5549 246.078 36.7284H255.847C256.019 35.4513 256.157 34.2087 256.226 32.9661H246.493Z" fill="#EC0000"/>
</g>
<rect x="0.5" y="0.5" width="363" height="69" rx="9.5" stroke="#D9D9D9"/>
<defs>
<clipPath id="clip0_4910_82584">
<rect width="364" height="70" rx="10" fill="white"/>
</clipPath>
</defs>
</svg>
