<svg width="142" height="41" viewBox="0 0 142 41" fill="none" xmlns="http://www.w3.org/2000/svg">
<rect x="0.5" y="0.5" width="141" height="40" rx="9.5" fill="white"/>
<rect x="0.5" y="0.5" width="141" height="40" rx="9.5" stroke="#D9D9D9"/>
<path d="M14.8648 25V13.4466C15.1319 13.3464 15.4157 13.313 15.6662 13.313V25H14.8648ZM16.9017 20.6424L20.9921 25H20.007L15.9834 20.6925V20.609L19.7399 16.7523H20.7083L16.9017 20.6424ZM27.9182 16.7523H28.7196V25H27.9683L27.9182 23.681C27.267 24.616 26.4323 25.2003 25.2135 25.2003C23.4437 25.2003 22.5422 24.1652 22.5422 22.2953V16.7523H23.3436V22.0783C23.3436 23.7311 24.0448 24.5158 25.4639 24.5158C26.5157 24.5158 27.3171 23.9649 27.9182 23.2803V16.7523ZM34.8157 16.552C36.8693 16.552 38.1047 18.0379 38.1047 20.7593C38.1047 23.5976 36.8693 25.2003 34.248 25.2003C33.5969 25.2003 32.9458 25.1169 32.3781 24.9666V28.5395H31.5767V16.7523H32.328L32.3781 17.921C32.9458 17.0696 33.6804 16.552 34.8157 16.552ZM34.2313 24.5158C36.3517 24.5158 37.3033 23.1301 37.3033 20.7927C37.3033 18.5054 36.3684 17.2365 34.6153 17.2365C33.6637 17.2365 32.9792 17.6539 32.3781 18.3551V24.1819C32.9458 24.399 33.5301 24.5158 34.2313 24.5158ZM47.3926 16.552C49.1623 16.552 50.0639 17.5871 50.0639 19.457V25H49.2625V19.6741C49.2625 18.0212 48.5613 17.2365 47.1422 17.2365C46.0903 17.2365 45.289 17.7875 44.6879 18.472V25H43.8865V16.7523H44.6378L44.6879 18.0713C45.339 17.1363 46.1738 16.552 47.3926 16.552ZM55.4258 16.552C57.3124 16.552 58.2641 17.3868 58.2641 19.24V25H57.5128L57.4627 23.7478C56.9785 24.5492 56.0269 25.2003 54.7413 25.2003C53.1552 25.2003 52.1702 24.2821 52.1702 22.8296C52.1702 21.0932 53.3556 19.9913 57.1288 19.7242L57.4627 19.7075V19.2734C57.4627 17.7875 56.7448 17.2365 55.3423 17.2365C54.2404 17.2365 53.3723 17.5037 52.6043 17.9377C52.6043 17.7541 52.6377 17.4536 52.671 17.2198C53.389 16.8191 54.3072 16.552 55.4258 16.552ZM54.8749 24.5325C55.9601 24.5325 56.9618 23.9816 57.4627 23.2637V20.3252L57.1622 20.3419C53.7897 20.609 52.9716 21.5106 52.9716 22.7795C52.9716 23.7979 53.6394 24.5325 54.8749 24.5325Z" fill="#EC0000"/>
<path d="M115.856 23.887C116.346 23.887 116.781 23.8345 117.16 23.7295C117.539 23.6246 118.523 23.2939 118.746 23.2038C118.746 23.2038 118.753 23.7345 118.686 24.3662C118.608 25.1147 118.451 25.5989 118.451 25.5989C118.138 25.7346 117.788 25.8732 117.282 26.0158C116.777 26.1583 116.182 26.2296 115.499 26.2296C114.665 26.2296 113.971 26.1177 113.414 25.892C112.856 25.6672 112.414 25.3405 112.087 24.9118C111.759 24.484 111.53 23.9662 111.396 23.3572C111.262 22.7493 111.195 22.0542 111.195 21.273V11.0677L113.893 10.6172V14.1767H117.938C117.938 14.1767 117.855 14.9193 117.783 15.3698C117.711 15.8253 117.498 16.4521 117.498 16.4521H113.893V21.2512C113.893 22.1968 114.042 22.8731 114.34 23.278C114.637 23.684 115.142 23.887 115.856 23.887Z" fill="#EC0000"/>
<path d="M94.9933 13.9621C95.2309 13.9839 95.4685 14.0146 95.7062 14.0522C95.9438 14.0898 96.1745 14.1344 96.3983 14.1868C96.6211 14.2403 96.7993 14.2888 96.933 14.3334C96.933 14.3334 96.925 14.9492 96.7735 15.6314C96.6419 16.2226 96.4646 16.6315 96.4646 16.6315C96.2418 16.5562 95.9329 16.477 95.5388 16.3948C95.1448 16.3127 94.6883 16.2711 94.1675 16.2711C93.8705 16.2711 93.5546 16.3018 93.22 16.3612C92.8853 16.4216 92.6516 16.474 92.5179 16.5186V25.9585H89.8198V14.7393C90.3396 14.5443 90.9902 14.3601 91.7704 14.1868C92.5516 14.0146 93.417 13.9284 94.3685 13.9284C94.5467 13.9284 94.7547 13.9393 94.9933 13.9621Z" fill="#EC0000"/>
<path d="M128.568 14.1756C128.228 15.5875 127.851 17.048 127.436 18.558C127.022 20.0669 126.577 21.4907 126.104 22.8274C125.821 22.1818 125.537 21.4828 125.254 20.7313C124.97 19.9808 124.702 19.2263 124.448 18.4679C124.194 17.7094 123.959 16.9619 123.743 16.2262C123.526 15.4905 123.344 14.8063 123.194 14.1756H120.318C120.93 16.3688 121.628 18.4411 122.412 20.3937C123.195 22.3462 124.013 24.1492 124.864 25.8008C124.565 26.5068 124.218 27.0286 123.822 27.3672C123.427 27.7048 122.877 27.8731 122.176 27.8731C121.653 27.8731 121.124 27.7682 120.587 27.5583C120.569 27.7167 120.499 28.3227 120.436 28.7118C120.372 29.1207 120.195 29.6633 120.158 29.7732C120.364 29.8673 120.651 29.9544 121.022 30.0366C121.431 30.1267 121.843 30.1712 122.26 30.1712C122.885 30.1712 123.436 30.1 123.912 29.9574C124.388 29.8148 124.82 29.5861 125.207 29.2702C125.593 28.9554 125.944 28.5573 126.256 28.0761C126.568 27.5959 126.873 27.0177 127.171 26.3414C128.759 22.7066 130.154 18.652 131.356 14.1756H128.568Z" fill="#EC0000"/>
<path fill-rule="evenodd" clip-rule="evenodd" d="M102.916 26.4994C99.9811 26.4994 98.0246 24.3646 98.0246 20.6308C98.0246 16.7178 100.115 14.495 104.227 14.495C105.828 14.495 107.139 14.6732 108.429 15.1178V26.233H106.183L106.05 24.8983C105.428 25.8766 104.471 26.4994 102.916 26.4994ZM103.605 24.4983C104.561 24.4983 105.339 24.1874 105.983 23.6983V16.7178C105.472 16.6287 104.916 16.5842 104.227 16.5842C101.693 16.5842 100.515 18.1407 100.515 20.6308C100.515 22.8983 101.427 24.4983 103.605 24.4983Z" fill="#EC0000"/>
<path fill-rule="evenodd" clip-rule="evenodd" d="M70.1411 15.9286C69.6361 16.4474 69.2302 17.0969 68.9262 17.8772C68.6212 18.6584 68.4688 19.5673 68.4688 20.604C68.4688 21.4902 68.5876 22.3051 68.8262 23.0477C69.0638 23.7913 69.4282 24.4378 69.9183 24.9854C70.4094 25.5339 71.0332 25.9616 71.7916 26.2696C72.5501 26.5775 73.4422 26.7319 74.468 26.7319C74.869 26.7319 75.2631 26.7092 75.6492 26.6636C76.0354 26.6191 76.3968 26.5626 76.7304 26.4953C77.0651 26.428 77.3621 26.3527 77.6225 26.2696C77.8829 26.1874 78.0869 26.1082 78.2354 26.0329C78.2354 26.0329 78.3909 25.5062 78.4671 24.8517C78.5335 24.2932 78.5335 23.5744 78.5335 23.5744C78.2206 23.7101 77.1394 24.0655 76.5968 24.1853C76.0542 24.3061 75.4561 24.3665 74.8017 24.3665C73.6868 24.3665 72.8362 24.1071 72.2491 23.5883C71.6609 23.0704 71.3302 22.3387 71.257 21.3922H78.9493C78.9642 21.2417 78.9751 21.0733 78.983 20.8852C78.9899 20.6981 78.9939 20.5288 78.9939 20.3783C78.9939 18.3812 78.5444 16.8791 77.6453 15.8722C76.7453 14.8662 75.4928 14.3632 73.8878 14.3632C73.2036 14.3632 72.5352 14.4949 71.8808 14.7573C71.2263 15.0206 70.647 15.4107 70.1411 15.9286ZM75.6853 17.4411C75.8863 17.6886 76.0388 17.9817 76.1428 18.3194C76.2467 18.658 76.2982 19.0144 76.2982 19.3897H71.2812C71.3258 19.0451 71.408 18.7065 71.5268 18.3758C71.6456 18.0461 71.8129 17.753 72.0288 17.4976C72.2436 17.2421 72.508 17.0362 72.8199 16.8777C73.1318 16.7203 73.512 16.6411 73.913 16.6411C74.314 16.6411 74.6596 16.7124 74.9497 16.8559C75.2398 16.9985 75.4843 17.1936 75.6853 17.4411Z" fill="#EC0000"/>
<path d="M82.0181 19.4011C81.9088 20.0571 81.8177 20.7678 81.7994 21.3874H86.9566C87.0477 20.7131 87.1206 20.0571 87.157 19.4011H82.0181Z" fill="#EC0000"/>
</svg>
