<svg width="250" height="250" viewBox="0 0 250 250" fill="none" xmlns="http://www.w3.org/2000/svg">
<rect width="250" height="250" fill="white"/>
<path d="M72.9003 182.683C72.9648 181.393 73.1581 180.491 73.4804 179.46C75.2853 180.298 77.5414 180.684 79.2818 180.684C82.2469 180.684 83.8584 179.718 83.8584 177.848C83.8584 175.979 82.6337 175.141 79.6685 173.787L78.0571 173.078C75.0919 171.789 73.0292 170.049 73.0292 166.697C73.0292 163.023 75.5431 160.702 80.6354 160.702C82.6981 160.702 84.6319 160.96 86.4368 161.604C86.3723 162.894 86.1145 163.861 85.7922 164.827C84.0518 164.183 82.0535 163.925 80.571 163.925C77.7992 163.925 76.5745 165.021 76.5745 166.697C76.5745 168.373 77.7992 169.34 80.0553 170.306L81.7957 171.016C85.7922 172.756 87.4681 174.561 87.4681 177.655C87.4681 181.329 84.6964 183.843 79.3462 183.843C76.7679 183.843 74.7052 183.521 72.9003 182.683ZM104.55 167.341V183.327H101.327L101.134 181.393C100.231 182.812 98.8774 183.714 96.6858 183.714C92.4959 183.714 89.7242 180.62 89.7242 175.27C89.7242 169.662 92.6893 166.439 98.5551 166.439C100.876 166.439 102.745 166.697 104.55 167.341ZM101.069 179.718V169.662C100.36 169.533 99.522 169.468 98.5551 169.468C94.9454 169.468 93.2695 171.725 93.2695 175.27C93.2695 178.557 94.5586 180.813 97.6527 180.813C99.0708 180.878 100.167 180.427 101.069 179.718ZM122.405 172.627V183.392H118.924V173.207C118.924 170.693 118.086 169.468 114.606 169.468C113.768 169.468 112.801 169.533 111.834 169.726V183.327H108.353V167.341C110.545 166.826 112.994 166.439 114.67 166.439C120.536 166.439 122.405 168.759 122.405 172.627ZM132.074 180.749C133.105 180.749 134.008 180.555 134.781 180.298C134.717 181.265 134.588 182.36 134.394 183.263C133.428 183.65 132.461 183.778 131.429 183.778C128.013 183.778 125.886 182.231 125.886 178.299V161.476C126.982 161.153 128.271 160.96 129.367 160.96V167.019H134.91C134.846 168.115 134.781 169.082 134.588 170.049H129.367V177.913C129.367 179.911 130.398 180.749 132.074 180.749ZM150.767 167.341V183.327H147.544L147.351 181.393C146.448 182.812 145.095 183.714 142.903 183.714C138.713 183.714 135.942 180.62 135.942 175.27C135.942 169.662 138.907 166.439 144.772 166.439C147.029 166.439 148.898 166.697 150.767 167.341ZM147.286 179.718V169.662C146.577 169.533 145.739 169.468 144.772 169.468C141.163 169.468 139.487 171.725 139.487 175.27C139.487 178.557 140.776 180.813 143.87 180.813C145.224 180.878 146.319 180.427 147.286 179.718ZM168.558 172.627V183.392H165.077V173.207C165.077 170.693 164.239 169.468 160.758 169.468C159.92 169.468 158.954 169.533 157.987 169.726V183.327H154.506V167.341C156.697 166.826 159.147 166.439 160.823 166.439C166.689 166.439 168.558 168.759 168.558 172.627ZM186.284 160.96V183.392H183.061L182.868 181.329C181.965 182.812 180.612 183.778 178.356 183.778C174.166 183.778 171.394 180.684 171.394 175.334C171.394 169.726 174.359 166.503 180.225 166.503C181.128 166.503 182.03 166.568 182.803 166.761V161.476C183.899 161.024 185.124 160.96 186.284 160.96ZM182.803 179.653V169.791C181.901 169.597 180.934 169.468 180.032 169.468C176.551 169.468 174.939 171.66 174.939 175.27C174.939 178.557 176.229 180.813 179.323 180.813C180.741 180.878 181.837 180.362 182.803 179.653ZM203.817 176.495H192.666C193.117 179.331 194.728 180.749 197.887 180.749C199.756 180.749 201.69 180.362 203.495 179.524C203.366 180.427 203.173 181.651 202.979 182.747C201.368 183.456 199.692 183.778 197.822 183.778C192.021 183.778 189.185 180.491 189.185 175.012C189.185 170.242 191.377 166.439 196.92 166.439C201.883 166.439 204.075 169.726 204.075 173.787C203.946 174.754 203.882 175.592 203.817 176.495ZM192.601 173.594H200.465C200.465 170.951 199.047 169.404 196.662 169.404C194.213 169.404 192.859 170.822 192.601 173.594ZM216 166.568C216 167.599 215.871 168.888 215.678 169.597C214.84 169.533 214.002 169.468 213.035 169.468C212.197 169.468 211.294 169.533 210.456 169.662V183.327H206.976V167.341C208.458 166.826 210.972 166.439 212.906 166.439C214.002 166.439 215.227 166.503 216 166.568ZM56.9789 166.89C56.9144 165.73 56.5921 164.57 56.012 163.538L50.7263 154.256C50.3396 153.547 50.0173 152.774 49.8883 152L49.695 152.387C48.4058 154.643 48.4058 157.479 49.695 159.8L53.9493 167.212C55.2385 169.468 55.2385 172.305 53.9493 174.625L53.7559 175.012C53.627 174.238 53.3047 173.465 52.9179 172.756L49.0504 165.988L46.6009 161.669C46.2142 160.96 45.8919 160.186 45.7629 159.413L45.5696 159.8C44.2804 162.056 44.2804 164.892 45.5696 167.148L49.8239 174.561C51.1131 176.817 51.1131 179.653 49.8239 181.974L49.6305 182.36C49.5016 181.587 49.1793 180.813 48.7925 180.104L43.5069 170.887C42.7978 169.662 42.4755 168.244 42.54 166.89C36.8676 168.373 33 171.531 33 175.205C33 180.298 40.5417 184.423 49.8883 184.423C59.235 184.423 66.7767 180.298 66.7767 175.205C66.5188 171.531 62.6513 168.373 56.9789 166.89Z" fill="#EC0000"/>
<path d="M72.7715 199.438C72.7715 194.604 75.4143 191.703 80.1843 191.703C81.3446 191.703 82.4404 191.832 83.4073 192.219C83.3428 193.057 83.2139 193.766 83.0205 194.346C82.1825 194.024 81.2157 193.895 80.1843 193.895C77.2836 193.895 75.2209 195.7 75.2209 199.374C75.2209 203.112 77.3481 205.111 80.1843 205.111C81.2157 205.111 82.3759 204.853 83.2139 204.466C83.1494 205.304 83.0205 206.013 82.8271 206.787C81.9892 207.109 81.0867 207.238 79.7975 207.238C75.2854 207.173 72.7715 204.015 72.7715 199.438Z" fill="#EC0000"/>
<path d="M83.9863 201.438C83.9863 197.699 86.1779 195.508 89.5943 195.508C93.1395 195.508 95.0089 197.957 95.0089 201.116C95.0089 204.854 92.8817 207.046 89.4009 207.046C85.8556 207.11 83.9863 204.597 83.9863 201.438ZM92.5594 201.374C92.5594 198.795 91.3991 197.571 89.4654 197.571C87.2738 197.571 86.3069 199.053 86.3069 201.309C86.3069 203.952 87.4671 205.112 89.4654 205.112C91.5925 205.048 92.5594 203.63 92.5594 201.374Z" fill="#EC0000"/>
<path d="M106.032 199.633V206.853H103.712V200.084C103.712 198.408 103.131 197.57 100.811 197.57C100.231 197.57 99.5862 197.635 98.9416 197.764V206.853H96.6211V196.152C98.1037 195.766 99.7151 195.572 100.875 195.572C104.743 195.508 106.032 197.055 106.032 199.633Z" fill="#EC0000"/>
<path d="M107.708 206.335C107.772 205.433 107.837 204.852 108.03 204.337C108.997 204.852 110.351 205.11 111.382 205.11C112.736 205.11 113.445 204.724 113.445 203.821C113.445 203.048 112.8 202.725 111.769 202.403L110.673 202.081C108.546 201.372 107.837 200.276 107.837 198.729C107.837 196.731 109.191 195.57 111.898 195.57C113.252 195.57 114.347 195.699 115.379 196.086C115.314 196.731 115.25 197.311 115.056 197.955C114.089 197.633 113.058 197.504 111.962 197.504C110.48 197.504 110.093 197.955 110.093 198.664C110.093 199.438 110.609 199.825 111.769 200.211L112.865 200.598C114.863 201.243 115.765 202.21 115.765 203.886C115.765 205.819 114.218 207.173 111.447 207.173C109.835 207.109 108.675 206.851 107.708 206.335Z" fill="#EC0000"/>
<path d="M126.595 195.766V206.788H124.403L124.274 205.37C123.565 206.337 122.534 207.046 121.116 207.046C118.537 207.046 117.184 205.692 117.184 202.921V195.766H119.504V202.405C119.504 204.21 120.149 205.048 121.889 205.048C122.727 205.048 123.565 204.79 124.21 204.21V195.766H126.595Z" fill="#EC0000"/>
<path d="M145.352 199.633V206.853H143.032V200.02C143.032 198.408 142.323 197.57 140.389 197.57C139.615 197.57 138.842 197.764 138.133 198.022C138.262 198.473 138.326 199.053 138.326 199.633V206.853H136.006V199.955C136.006 198.344 135.296 197.57 133.298 197.57C132.654 197.57 131.945 197.635 131.3 197.764V206.853H128.979V196.152C130.462 195.766 132.074 195.572 133.556 195.572C135.039 195.572 136.199 195.83 137.037 196.41C138.262 195.895 139.486 195.572 140.711 195.572C144.127 195.508 145.352 197.055 145.352 199.633Z" fill="#EC0000"/>
<path d="M156.697 202.276H149.284C149.607 204.21 150.702 205.112 152.765 205.112C154.054 205.112 155.344 204.854 156.504 204.274C156.439 204.919 156.31 205.692 156.117 206.401C155.086 206.917 153.925 207.11 152.701 207.11C148.833 207.11 146.899 204.919 146.899 201.245C146.899 198.086 148.382 195.508 152.056 195.508C155.408 195.508 156.826 197.699 156.826 200.407C156.826 201.116 156.762 201.631 156.697 202.276ZM149.22 200.278H154.441C154.441 198.537 153.539 197.506 151.927 197.506C150.251 197.506 149.413 198.473 149.22 200.278Z" fill="#EC0000"/>
<path d="M164.626 195.638C164.626 196.347 164.561 197.185 164.432 197.636C163.852 197.572 163.336 197.572 162.692 197.572C162.112 197.572 161.532 197.636 160.951 197.701V206.854H158.631V196.154C159.598 195.831 161.274 195.574 162.627 195.574C163.272 195.509 164.11 195.574 164.626 195.638Z" fill="#EC0000"/>
<path d="M179.517 202.474C179.517 205.245 177.776 206.792 173.78 206.792H169.203V192.096C170.234 191.902 171.717 191.773 173.006 191.773C177.003 191.773 178.872 193.32 178.872 195.834C178.872 197.124 178.227 198.542 176.809 199.186C178.485 199.637 179.517 200.927 179.517 202.474ZM171.524 193.901V198.284H173.457C175.585 198.284 176.487 197.51 176.487 196.092C176.487 194.803 175.778 193.772 173.071 193.772C172.491 193.836 172.039 193.836 171.524 193.901ZM177.067 202.603C177.067 201.056 175.907 200.347 173.586 200.347H171.524V204.73H173.522C175.907 204.794 177.067 204.214 177.067 202.603Z" fill="#EC0000"/>
<path d="M190.539 196.152V206.853H188.412L188.283 205.563C187.703 206.53 186.8 207.11 185.318 207.11C182.546 207.11 180.677 205.048 180.677 201.438C180.677 197.699 182.675 195.508 186.607 195.508C188.025 195.508 189.314 195.701 190.539 196.152ZM188.219 204.403V197.699C187.703 197.635 187.187 197.571 186.543 197.571C184.158 197.571 182.997 199.053 182.997 201.438C182.997 203.63 183.835 205.177 185.962 205.177C186.865 205.177 187.574 204.854 188.219 204.403Z" fill="#EC0000"/>
<path d="M202.205 199.633V206.853H199.884V200.084C199.884 198.408 199.304 197.57 196.984 197.57C196.404 197.57 195.759 197.635 195.114 197.764V206.853H192.794V196.152C194.277 195.766 195.888 195.572 197.048 195.572C200.98 195.508 202.205 197.055 202.205 199.633Z" fill="#EC0000"/>
<path d="M204.397 192.025C205.171 191.768 205.944 191.703 206.718 191.703V206.851H204.397V192.025ZM214.066 206.851H211.23L207.105 200.985V200.856L211.166 195.829H213.937L209.748 200.921L214.066 206.851Z" fill="#EC0000"/>
<path d="M165.739 81.9014C166.99 81.9014 168.103 81.7674 169.069 81.4994C170.037 81.2314 172.55 80.3869 173.119 80.1568C173.119 80.1568 173.137 81.512 172.967 83.1252C172.768 85.0367 172.366 86.273 172.366 86.273C171.567 86.6194 170.674 86.9734 169.382 87.3375C168.093 87.7016 166.573 87.8836 164.828 87.8836C162.699 87.8836 160.927 87.5979 159.504 87.0215C158.08 86.4475 156.95 85.6131 156.115 84.5183C155.279 83.4261 154.692 82.1037 154.351 80.5487C154.009 78.9963 153.837 77.2213 153.837 75.2264V49.1661L160.727 48.0156V57.1053H171.056C171.056 57.1053 170.843 59.0016 170.661 60.152C170.477 61.3151 169.933 62.9156 169.933 62.9156H160.727V75.1708C160.727 77.5854 161.107 79.3123 161.868 80.3464C162.626 81.3831 163.916 81.9014 165.739 81.9014Z" fill="#EC0000"/>
<path d="M112.465 56.5572C113.071 56.6128 113.678 56.6912 114.285 56.7872C114.892 56.8833 115.481 56.9971 116.052 57.1311C116.621 57.2676 117.076 57.3915 117.418 57.5053C117.418 57.5053 117.398 59.078 117.011 60.8201C116.674 62.3295 116.222 63.3738 116.222 63.3738C115.653 63.1816 114.864 62.9793 113.858 62.7695C112.851 62.5596 111.686 62.4534 110.356 62.4534C109.597 62.4534 108.791 62.5318 107.936 62.6835C107.082 62.8377 106.485 62.9717 106.144 63.0855V87.1914H99.2537V58.542C100.581 58.0439 102.242 57.5736 104.235 57.1311C106.23 56.6912 108.439 56.4712 110.869 56.4712C111.324 56.4712 111.855 56.499 112.465 56.5572Z" fill="#EC0000"/>
<path d="M198.202 57.1025C197.333 60.708 196.369 64.4374 195.31 68.2932C194.253 72.1465 193.118 75.7824 191.909 79.1957C191.186 77.5472 190.46 75.7621 189.737 73.8431C189.014 71.9265 188.329 69.9999 187.679 68.0631C187.032 66.1264 186.433 64.2174 185.879 62.3388C185.325 60.4602 184.86 58.7131 184.478 57.1025H177.133C178.696 62.7029 180.478 67.9949 182.481 72.9809C184.481 77.9669 186.569 82.5712 188.744 86.7886C187.98 88.5913 187.093 89.9238 186.081 90.7885C185.072 91.6507 183.669 92.0805 181.879 92.0805C180.544 92.0805 179.191 91.8125 177.821 91.2765C177.775 91.681 177.596 93.2284 177.437 94.2221C177.272 95.2663 176.82 96.6519 176.726 96.9325C177.252 97.1727 177.985 97.3953 178.931 97.6051C179.975 97.8352 181.029 97.949 182.094 97.949C183.689 97.949 185.095 97.7669 186.311 97.4028C187.527 97.0387 188.63 96.4547 189.618 95.6481C190.605 94.8441 191.5 93.8277 192.296 92.5988C193.095 91.3726 193.874 89.896 194.635 88.1691C198.688 78.8873 202.25 68.5334 205.32 57.1025H198.202Z" fill="#EC0000"/>
<path fill-rule="evenodd" clip-rule="evenodd" d="M132.696 88.5725C125.202 88.5725 120.206 83.1212 120.206 73.5866C120.206 63.5943 125.543 57.918 136.043 57.918C140.132 57.918 143.48 58.3731 146.774 59.5084V87.8923H141.04L140.698 84.484C139.11 86.9821 136.668 88.5725 132.696 88.5725ZM134.456 83.4625C136.896 83.4625 138.883 82.6686 140.529 81.4196V63.5943C139.224 63.3667 137.803 63.2529 136.043 63.2529C129.573 63.2529 126.564 67.2276 126.564 73.5866C126.564 79.3766 128.893 83.4625 134.456 83.4625Z" fill="#EC0000"/>
<path fill-rule="evenodd" clip-rule="evenodd" d="M49.0019 61.5789C47.7124 62.9037 46.6758 64.5624 45.8996 66.5548C45.1208 68.5497 44.7314 70.8708 44.7314 73.518C44.7314 75.781 45.0349 77.8618 45.6442 79.7582C46.251 81.657 47.1815 83.308 48.433 84.7063C49.6871 86.107 51.28 87.1993 53.2168 87.9856C55.1536 88.7719 57.4317 89.1664 60.0511 89.1664C61.0751 89.1664 62.0814 89.1082 63.0675 88.9919C64.0536 88.8781 64.9765 88.734 65.8285 88.5621C66.6831 88.3902 67.4417 88.198 68.1066 87.9856C68.7716 87.7758 69.2925 87.5735 69.6717 87.3813C69.6717 87.3813 70.0687 86.0362 70.2634 84.3649C70.4328 82.9389 70.4328 81.1033 70.4328 81.1033C69.6338 81.4497 66.8728 82.3574 65.4872 82.6633C64.1016 82.9718 62.5745 83.126 60.9032 83.126C58.0562 83.126 55.8843 82.4636 54.3849 81.1387C52.8831 79.8163 52.0386 77.9478 51.8515 75.5306H71.4947C71.5326 75.1463 71.5604 74.7165 71.5807 74.2361C71.5984 73.7582 71.6085 73.3259 71.6085 72.9415C71.6085 67.8417 70.4606 64.0061 68.1648 61.4347C65.8665 58.8659 62.668 57.5814 58.5695 57.5814C56.8223 57.5814 55.1156 57.9177 53.4444 58.5877C51.7731 59.2603 50.294 60.2565 49.0019 61.5789ZM63.1598 65.4412C63.673 66.0733 64.0624 66.8218 64.3279 67.6839C64.5934 68.5487 64.7248 69.4589 64.7248 70.4172H51.9134C52.0272 69.5373 52.237 68.6726 52.5404 67.8281C52.8438 66.9861 53.2711 66.2377 53.8223 65.5854C54.371 64.933 55.0461 64.4071 55.8425 64.0026C56.639 63.6006 57.6099 63.3983 58.6339 63.3983C59.6579 63.3983 60.5403 63.5803 61.2811 63.947C62.022 64.311 62.6465 64.8091 63.1598 65.4412Z" fill="#EC0000"/>
<path d="M79.3312 70.4462C79.052 72.1215 78.8193 73.9363 78.7728 75.5185H91.942C92.1747 73.7967 92.3608 72.1215 92.4539 70.4462H79.3312Z" fill="#EC0000"/>
</svg>
