<svg width="197" height="41" viewBox="0 0 197 41" fill="none" xmlns="http://www.w3.org/2000/svg">
<rect x="0.5" y="0.5" width="196" height="40" rx="3.5" fill="white"/>
<rect x="0.5" y="0.5" width="196" height="40" rx="3.5" stroke="#D9D9D9"/>
<path d="M14.3437 26.1843C12.209 26.1843 11.0571 24.6485 11.0571 22.2067C11.0571 19.8109 12.209 18.229 14.3437 18.229C16.4784 18.229 17.6149 19.8109 17.6149 22.2067C17.6149 24.6639 16.463 26.1843 14.3437 26.1843ZM14.3437 25.5546C16.0177 25.5546 16.8623 24.2799 16.8623 22.2067C16.8623 20.1794 16.0177 18.8587 14.3437 18.8587C12.6543 18.8587 11.8097 20.1794 11.8097 22.2067C11.8097 24.2799 12.6697 25.5546 14.3437 25.5546ZM22.6439 18.229C24.5329 18.229 25.6694 19.5959 25.6694 22.0992C25.6694 24.71 24.5329 26.1843 22.1217 26.1843C21.2156 26.1843 20.3556 26.0154 19.6645 25.6928V15.3725C19.9102 15.2803 20.1713 15.2496 20.4017 15.2496V19.4883C20.9238 18.7051 21.5996 18.229 22.6439 18.229ZM22.1064 25.5546C24.0568 25.5546 24.9322 24.2799 24.9322 22.1299C24.9322 20.0259 24.0722 18.8587 22.4596 18.8587C21.5842 18.8587 20.9546 19.2426 20.4017 19.8876V25.2475C20.9238 25.4471 21.4614 25.5546 22.1064 25.5546ZM29.4212 26.1689C28.3462 26.1689 27.7165 25.57 27.7165 24.326V15.3725C27.9622 15.2803 28.2233 15.2496 28.4537 15.2496V24.2646C28.4537 25.1093 28.8683 25.5393 29.6208 25.5393C29.928 25.5393 30.2044 25.4778 30.4809 25.355C30.4655 25.5546 30.4348 25.8004 30.3887 26C30.0816 26.1075 29.7591 26.1689 29.4212 26.1689ZM32.3612 16.4168C32.0694 16.4168 31.8391 16.2018 31.8391 15.8639C31.8391 15.5261 32.0694 15.3111 32.3612 15.3111C32.6837 15.3111 32.8987 15.5261 32.8987 15.8639C32.8987 16.1864 32.6837 16.4168 32.3612 16.4168ZM31.9926 26V18.4133H32.7298V26H31.9926ZM38.1933 26.1843C36.0739 26.1843 34.7685 24.756 34.7685 22.2067C34.7685 19.5959 36.0893 18.229 38.2087 18.229C38.869 18.229 39.4219 18.3519 39.9594 18.5976C39.9594 18.7819 39.9134 19.043 39.8827 19.2119C39.3298 18.9662 38.823 18.874 38.2547 18.874C36.504 18.874 35.5211 20.118 35.5211 22.222C35.5211 24.2646 36.504 25.5546 38.2547 25.5546C38.8537 25.5546 39.4987 25.4011 39.9748 25.0939C39.9594 25.2628 39.9134 25.5393 39.8673 25.7543C39.468 26.0307 38.7923 26.1843 38.1933 26.1843ZM42.274 25.355H47.0656C47.0502 25.57 47.0195 25.8004 46.9735 26H41.2911C41.2911 25.8464 41.2911 25.6775 41.3218 25.5239L45.8984 19.0583H41.3679C41.3833 18.8433 41.414 18.613 41.4601 18.4133H46.8967C46.8967 18.5669 46.8813 18.7358 46.8506 18.874L42.274 25.355Z" fill="#EC0000"/>
<path d="M139.71 20.6455C139.731 20.2343 139.793 19.9465 139.896 19.6176C140.471 19.8848 141.191 20.0082 141.746 20.0082C142.692 20.0082 143.206 19.6998 143.206 19.1036C143.206 18.5074 142.815 18.2401 141.869 17.8084L141.355 17.5822C140.409 17.171 139.752 16.6159 139.752 15.5469C139.752 14.375 140.553 13.6349 142.178 13.6349C142.835 13.6349 143.452 13.7171 144.028 13.9227C144.007 14.3339 143.925 14.6423 143.822 14.9506C143.267 14.745 142.63 14.6628 142.157 14.6628C141.273 14.6628 140.882 15.0123 140.882 15.5469C140.882 16.0814 141.273 16.3898 141.993 16.6982L142.548 16.9243C143.822 17.4794 144.357 18.0551 144.357 19.0419C144.357 20.2138 143.473 21.0156 141.766 21.0156C140.944 21.0156 140.286 20.9128 139.71 20.6455ZM149.805 15.7524V20.8511H148.777L148.715 20.2343C148.428 20.6866 147.996 20.9745 147.297 20.9745C145.96 20.9745 145.076 19.9876 145.076 18.2812C145.076 16.4926 146.022 15.4646 147.893 15.4646C148.633 15.4646 149.229 15.5469 149.805 15.7524ZM148.695 19.6998V16.4926C148.469 16.4515 148.201 16.4309 147.893 16.4309C146.742 16.4309 146.207 17.1505 146.207 18.2812C146.207 19.3297 146.618 20.0493 147.605 20.0493C148.057 20.0699 148.407 19.9259 148.695 19.6998ZM155.5 17.4383V20.8717H154.39V17.6233C154.39 16.8215 154.122 16.4309 153.012 16.4309C152.745 16.4309 152.437 16.4515 152.128 16.5131V20.8511H151.018V15.7524C151.717 15.588 152.498 15.4646 153.033 15.4646C154.904 15.4646 155.5 16.2047 155.5 17.4383ZM158.584 20.0287C158.913 20.0287 159.201 19.9671 159.447 19.8848C159.427 20.1932 159.386 20.5427 159.324 20.8305C159.015 20.9539 158.707 20.995 158.378 20.995C157.289 20.995 156.61 20.5016 156.61 19.2475V13.8816C156.96 13.7788 157.371 13.7171 157.72 13.7171V15.6497H159.488C159.468 15.9992 159.447 16.3075 159.386 16.6159H157.72V19.1241C157.72 19.7615 158.049 20.0287 158.584 20.0287ZM164.546 15.7524V20.8511H163.518L163.456 20.2343C163.168 20.6866 162.737 20.9745 162.038 20.9745C160.701 20.9745 159.817 19.9876 159.817 18.2812C159.817 16.4926 160.763 15.4646 162.634 15.4646C163.353 15.4646 163.95 15.5469 164.546 15.7524ZM163.436 19.6998V16.4926C163.21 16.4515 162.942 16.4309 162.634 16.4309C161.483 16.4309 160.948 17.1505 160.948 18.2812C160.948 19.3297 161.359 20.0493 162.346 20.0493C162.778 20.0699 163.127 19.9259 163.436 19.6998ZM170.22 17.4383V20.8717H169.11V17.6233C169.11 16.8215 168.843 16.4309 167.733 16.4309C167.465 16.4309 167.157 16.4515 166.849 16.5131V20.8511H165.738V15.7524C166.437 15.588 167.219 15.4646 167.753 15.4646C169.624 15.4646 170.22 16.2047 170.22 17.4383ZM175.874 13.7171V20.8717H174.846L174.784 20.2138C174.497 20.6866 174.065 20.995 173.345 20.995C172.009 20.995 171.125 20.0082 171.125 18.3018C171.125 16.5131 172.071 15.4852 173.941 15.4852C174.229 15.4852 174.517 15.5057 174.764 15.5674V13.8816C175.113 13.7377 175.504 13.7171 175.874 13.7171ZM174.764 19.6792V16.5337C174.476 16.472 174.168 16.4309 173.88 16.4309C172.77 16.4309 172.256 17.1299 172.256 18.2812C172.256 19.3297 172.667 20.0493 173.654 20.0493C174.106 20.0699 174.455 19.9054 174.764 19.6792ZM181.466 18.6718H177.909C178.053 19.5764 178.567 20.0287 179.575 20.0287C180.171 20.0287 180.788 19.9054 181.363 19.6381C181.322 19.9259 181.26 20.3166 181.199 20.6661C180.685 20.8922 180.15 20.995 179.554 20.995C177.704 20.995 176.799 19.9465 176.799 18.199C176.799 16.6776 177.498 15.4646 179.266 15.4646C180.849 15.4646 181.548 16.5131 181.548 17.8084C181.507 18.1167 181.487 18.384 181.466 18.6718ZM177.889 17.7467H180.397C180.397 16.9038 179.945 16.4103 179.184 16.4103C178.403 16.4103 177.971 16.8626 177.889 17.7467ZM185.352 15.5057C185.352 15.8347 185.311 16.2459 185.249 16.472C184.982 16.4515 184.714 16.4309 184.406 16.4309C184.139 16.4309 183.851 16.4515 183.584 16.4926V20.8511H182.473V15.7524C182.946 15.588 183.748 15.4646 184.365 15.4646C184.714 15.4646 185.105 15.4852 185.352 15.5057ZM134.632 15.6085C134.612 15.2385 134.509 14.8684 134.324 14.5395L132.638 11.5789C132.515 11.3528 132.412 11.1061 132.371 10.8594L132.309 10.9827C131.898 11.7023 131.898 12.6069 132.309 13.347L133.666 15.7113C134.077 16.4309 134.077 17.3355 133.666 18.0756L133.604 18.199C133.563 17.9523 133.46 17.7056 133.337 17.4794L132.104 15.3207L131.322 13.9432C131.199 13.7171 131.096 13.4704 131.055 13.2237L130.993 13.347C130.582 14.0666 130.582 14.9712 130.993 15.6908L132.35 18.0551C132.761 18.7746 132.761 19.6792 132.35 20.4194L132.289 20.5427C132.248 20.296 132.145 20.0493 132.021 19.8232L130.336 16.8832C130.109 16.4926 130.007 16.0403 130.027 15.6085C128.218 16.0814 126.984 17.0888 126.984 18.2607C126.984 19.8848 129.39 21.2006 132.371 21.2006C135.352 21.2006 137.757 19.8848 137.757 18.2607C137.675 17.0888 136.442 16.0814 134.632 15.6085Z" fill="#EC0000"/>
<path d="M139.669 25.9905C139.669 24.4486 140.512 23.5234 142.034 23.5234C142.404 23.5234 142.753 23.5646 143.062 23.6879C143.041 23.9552 143 24.1813 142.938 24.3664C142.671 24.2636 142.363 24.2224 142.034 24.2224C141.109 24.2224 140.451 24.7981 140.451 25.97C140.451 27.1624 141.129 27.7997 142.034 27.7997C142.363 27.7997 142.733 27.7175 143 27.5941C142.979 27.8614 142.938 28.0876 142.877 28.3343C142.609 28.4371 142.322 28.4782 141.91 28.4782C140.471 28.4576 139.669 27.4502 139.669 25.9905Z" fill="#EC0000"/>
<path d="M143.247 26.6258C143.247 25.4334 143.946 24.7344 145.035 24.7344C146.166 24.7344 146.762 25.5156 146.762 26.523C146.762 27.7154 146.084 28.4145 144.974 28.4145C143.843 28.435 143.247 27.6332 143.247 26.6258ZM145.981 26.6053C145.981 25.7829 145.611 25.3923 144.994 25.3923C144.295 25.3923 143.987 25.8651 143.987 26.5847C143.987 27.4276 144.357 27.7977 144.994 27.7977C145.673 27.7771 145.981 27.3248 145.981 26.6053Z" fill="#EC0000"/>
<path d="M150.278 26.0537V28.3563H149.538V26.1976C149.538 25.663 149.353 25.3958 148.613 25.3958C148.428 25.3958 148.222 25.4163 148.016 25.4574V28.3563H147.276V24.9435C147.749 24.8201 148.263 24.7584 148.633 24.7584C149.867 24.7379 150.278 25.2313 150.278 26.0537Z" fill="#EC0000"/>
<path d="M150.812 28.1912C150.833 27.9034 150.854 27.7183 150.915 27.5539C151.224 27.7183 151.655 27.8006 151.984 27.8006C152.416 27.8006 152.642 27.6772 152.642 27.3894C152.642 27.1427 152.437 27.0399 152.108 26.9371L151.758 26.8343C151.08 26.6081 150.854 26.2586 150.854 25.7652C150.854 25.1279 151.285 24.7578 152.149 24.7578C152.581 24.7578 152.93 24.7989 153.259 24.9223C153.238 25.1279 153.218 25.3129 153.156 25.5185C152.848 25.4157 152.519 25.3746 152.169 25.3746C151.697 25.3746 151.573 25.5185 151.573 25.7447C151.573 25.9914 151.738 26.1147 152.108 26.2381L152.457 26.3614C153.095 26.567 153.382 26.8754 153.382 27.4099C153.382 28.0267 152.889 28.4585 152.005 28.4585C151.491 28.4379 151.121 28.3557 150.812 28.1912Z" fill="#EC0000"/>
<path d="M156.836 24.8203V28.3359H156.137L156.096 27.8836C155.87 28.192 155.541 28.4182 155.089 28.4182C154.266 28.4182 153.834 27.9864 153.834 27.1024V24.8203H154.575V26.9379C154.575 27.5136 154.78 27.7808 155.335 27.7808C155.603 27.7808 155.87 27.6986 156.075 27.5136V24.8203H156.836Z" fill="#EC0000"/>
<path d="M162.819 26.0537V28.3563H162.079V26.177C162.079 25.663 161.852 25.3958 161.236 25.3958C160.989 25.3958 160.742 25.4574 160.516 25.5397C160.557 25.6836 160.578 25.8686 160.578 26.0537V28.3563H159.838V26.1565C159.838 25.6425 159.611 25.3958 158.974 25.3958C158.769 25.3958 158.542 25.4163 158.337 25.4574V28.3563H157.597V24.9435C158.07 24.8201 158.584 24.7584 159.056 24.7584C159.529 24.7584 159.899 24.8407 160.167 25.0257C160.557 24.8612 160.948 24.7584 161.338 24.7584C162.428 24.7379 162.819 25.2313 162.819 26.0537Z" fill="#EC0000"/>
<path d="M166.437 26.8931H164.073C164.176 27.5099 164.525 27.7977 165.183 27.7977C165.595 27.7977 166.006 27.7154 166.376 27.5304C166.355 27.736 166.314 27.9827 166.252 28.2089C165.924 28.3733 165.553 28.435 165.163 28.435C163.929 28.435 163.312 27.736 163.312 26.5641C163.312 25.5567 163.785 24.7344 164.957 24.7344C166.026 24.7344 166.479 25.4334 166.479 26.2969C166.479 26.523 166.458 26.6875 166.437 26.8931ZM164.053 26.2558H165.718C165.718 25.7007 165.43 25.3717 164.916 25.3717C164.382 25.3717 164.114 25.6801 164.053 26.2558Z" fill="#EC0000"/>
<path d="M168.966 24.7791C168.966 25.0052 168.946 25.2725 168.905 25.4164C168.719 25.3958 168.555 25.3958 168.349 25.3958C168.164 25.3958 167.979 25.4164 167.794 25.437V28.3564H167.054V24.9435C167.363 24.8408 167.897 24.7585 168.329 24.7585C168.534 24.738 168.802 24.7585 168.966 24.7791Z" fill="#EC0000"/>
<path d="M173.715 26.9597C173.715 27.8437 173.16 28.3371 171.885 28.3371H170.426V23.6497C170.755 23.588 171.228 23.5469 171.639 23.5469C172.913 23.5469 173.51 24.0403 173.51 24.8421C173.51 25.2533 173.304 25.7056 172.852 25.9112C173.386 26.0551 173.715 26.4663 173.715 26.9597ZM171.166 24.2253V25.6233H171.783C172.461 25.6233 172.749 25.3766 172.749 24.9243C172.749 24.5132 172.523 24.1842 171.659 24.1842C171.474 24.2048 171.33 24.2048 171.166 24.2253ZM172.934 27.0008C172.934 26.5074 172.564 26.2812 171.824 26.2812H171.166V27.6793H171.803C172.564 27.6998 172.934 27.5148 172.934 27.0008Z" fill="#EC0000"/>
<path d="M177.231 24.94V28.3528H176.553L176.511 27.9416C176.326 28.25 176.039 28.435 175.566 28.435C174.682 28.435 174.085 27.7771 174.085 26.6258C174.085 25.4334 174.723 24.7344 175.977 24.7344C176.429 24.7344 176.84 24.7961 177.231 24.94ZM176.491 27.5715V25.4334C176.326 25.4128 176.162 25.3923 175.956 25.3923C175.196 25.3923 174.826 25.8651 174.826 26.6258C174.826 27.3248 175.093 27.8182 175.771 27.8182C176.059 27.8182 176.285 27.7154 176.491 27.5715Z" fill="#EC0000"/>
<path d="M180.952 26.0537V28.3563H180.212V26.1976C180.212 25.663 180.027 25.3958 179.287 25.3958C179.102 25.3958 178.896 25.4163 178.69 25.4574V28.3563H177.95V24.9435C178.423 24.8201 178.937 24.7584 179.307 24.7584C180.561 24.7379 180.952 25.2313 180.952 26.0537Z" fill="#EC0000"/>
<path d="M181.651 23.6262C181.898 23.544 182.144 23.5234 182.391 23.5234V28.3548H181.651V23.6262ZM184.735 28.3548H183.83L182.514 26.484V26.4428L183.81 24.8392H184.694L183.357 26.4634L184.735 28.3548Z" fill="#EC0000"/>
<path d="M101.728 23.7087C102.191 23.7087 102.603 23.6591 102.961 23.5598C103.32 23.4605 104.251 23.1477 104.462 23.0625C104.462 23.0625 104.468 23.5645 104.405 24.1621C104.331 24.8702 104.183 25.3282 104.183 25.3282C103.887 25.4565 103.556 25.5876 103.077 25.7225C102.6 25.8573 102.037 25.9248 101.39 25.9248C100.602 25.9248 99.9453 25.8189 99.418 25.6054C98.8907 25.3928 98.472 25.0837 98.1629 24.6781C97.8529 24.2735 97.6356 23.7837 97.5092 23.2077C97.3827 22.6326 97.319 21.9751 97.319 21.2361V11.5824L99.8713 11.1562V14.5234H103.697C103.697 14.5234 103.619 15.2258 103.551 15.652C103.483 16.0828 103.282 16.6757 103.282 16.6757H99.8713V21.2155C99.8713 22.1099 100.012 22.7497 100.294 23.1327C100.575 23.5167 101.052 23.7087 101.728 23.7087Z" fill="#EC0000"/>
<path d="M81.9931 14.3203C82.2179 14.3409 82.4427 14.37 82.6675 14.4056C82.8923 14.4412 83.1105 14.4833 83.3222 14.5329C83.5329 14.5835 83.7015 14.6294 83.8279 14.6716C83.8279 14.6716 83.8205 15.2541 83.6772 15.8995C83.5526 16.4586 83.3849 16.8454 83.3849 16.8454C83.1742 16.7743 82.882 16.6993 82.5092 16.6216C82.1364 16.5439 81.7046 16.5045 81.212 16.5045C80.931 16.5045 80.6322 16.5336 80.3156 16.5898C79.9991 16.6469 79.778 16.6965 79.6516 16.7387V25.6684H77.0993V15.0556C77.591 14.8711 78.2064 14.6969 78.9444 14.5329C79.6834 14.37 80.502 14.2885 81.4021 14.2885C81.5707 14.2885 81.7674 14.2988 81.9931 14.3203Z" fill="#EC0000"/>
<path d="M113.753 14.5223C113.431 15.8579 113.074 17.2394 112.682 18.6678C112.29 20.0952 111.87 21.442 111.422 22.7065C111.154 22.0958 110.886 21.4345 110.618 20.7237C110.35 20.0137 110.096 19.3 109.855 18.5826C109.615 17.8651 109.393 17.158 109.188 16.4621C108.983 15.7662 108.811 15.119 108.669 14.5223H105.949C106.527 16.5969 107.188 18.5573 107.93 20.4043C108.67 22.2513 109.444 23.9568 110.25 25.5191C109.967 26.1869 109.638 26.6805 109.263 27.0008C108.89 27.3202 108.37 27.4794 107.707 27.4794C107.212 27.4794 106.711 27.3802 106.203 27.1816C106.187 27.3315 106.12 27.9047 106.061 28.2728C106 28.6596 105.832 29.1728 105.798 29.2768C105.993 29.3658 106.264 29.4482 106.615 29.5259C107.001 29.6112 107.392 29.6533 107.786 29.6533C108.377 29.6533 108.898 29.5859 109.349 29.451C109.799 29.3161 110.207 29.0998 110.574 28.801C110.939 28.5032 111.27 28.1266 111.566 27.6715C111.861 27.2172 112.15 26.6702 112.432 26.0305C113.933 22.5922 115.253 18.7568 116.39 14.5223H113.753Z" fill="#EC0000"/>
<path fill-rule="evenodd" clip-rule="evenodd" d="M89.4875 26.1799C86.7114 26.1799 84.8606 24.1606 84.8606 20.6286C84.8606 16.9271 86.8378 14.8244 90.7276 14.8244C92.2421 14.8244 93.4821 14.993 94.7025 15.4136V25.928H92.5783L92.4519 24.6654C91.8637 25.5908 90.9589 26.1799 89.4875 26.1799ZM90.1394 24.287C91.0432 24.287 91.7794 23.993 92.3891 23.5303V16.9271C91.9058 16.8428 91.3794 16.8007 90.7276 16.8007C88.3308 16.8007 87.2162 18.273 87.2162 20.6286C87.2162 22.7735 88.0788 24.287 90.1394 24.287Z" fill="#EC0000"/>
<path fill-rule="evenodd" clip-rule="evenodd" d="M58.4843 16.1806C58.0066 16.6713 57.6226 17.2858 57.3351 18.0238C57.0466 18.7628 56.9023 19.6226 56.9023 20.6032C56.9023 21.4415 57.0147 22.2123 57.2405 22.9148C57.4652 23.6182 57.8099 24.2298 58.2735 24.7478C58.7381 25.2666 59.3282 25.6713 60.0456 25.9625C60.7631 26.2538 61.607 26.3999 62.5773 26.3999C62.9566 26.3999 63.3294 26.3784 63.6947 26.3353C64.0599 26.2932 64.4018 26.2398 64.7174 26.1761C65.034 26.1124 65.315 26.0412 65.5613 25.9625C65.8077 25.8848 66.0006 25.8099 66.1411 25.7387C66.1411 25.7387 66.2882 25.2404 66.3603 24.6213C66.423 24.0931 66.423 23.4131 66.423 23.4131C66.1271 23.5414 65.1043 23.8776 64.591 23.991C64.0777 24.1052 63.512 24.1624 62.8929 24.1624C61.8383 24.1624 61.0337 23.917 60.4783 23.4262C59.922 22.9363 59.6092 22.2442 59.5398 21.3488H66.8164C66.8305 21.2064 66.8408 21.0472 66.8482 20.8692C66.8548 20.6922 66.8586 20.5321 66.8586 20.3897C66.8586 18.5005 66.4333 17.0797 65.5829 16.1272C64.7315 15.1756 63.5467 14.6998 62.0284 14.6998C61.3812 14.6998 60.749 14.8243 60.1299 15.0725C59.5108 15.3217 58.9629 15.6907 58.4843 16.1806ZM63.7288 17.6113C63.919 17.8455 64.0632 18.1227 64.1616 18.4421C64.2599 18.7624 64.3086 19.0996 64.3086 19.4546H59.5628C59.6049 19.1286 59.6827 18.8083 59.7951 18.4955C59.9075 18.1836 60.0657 17.9064 60.2699 17.6647C60.4732 17.4231 60.7232 17.2282 61.0183 17.0784C61.3133 16.9295 61.673 16.8545 62.0523 16.8545C62.4316 16.8545 62.7585 16.922 63.0329 17.0578C63.3074 17.1927 63.5387 17.3772 63.7288 17.6113Z" fill="#EC0000"/>
<path d="M69.7193 19.4653C69.6159 20.0859 69.5297 20.7582 69.5125 21.3443H74.3908C74.477 20.7065 74.546 20.0859 74.5804 19.4653H69.7193Z" fill="#EC0000"/>
</svg>
